<svg xmlns="http://www.w3.org/2000/svg" xmlns:xlink="http://www.w3.org/1999/xlink" aria-hidden="true" role="img" class="iconify iconify--material-symbols" width="32" height="32" preserveAspectRatio="xMidYMid meet" viewBox="0 0 24 24"><path d="M13 24q-2.575 0-4.7-1.438q-2.125-1.437-3.075-3.837L2.675 12.3q-.1-.25-.137-.463q-.038-.212-.038-.487q0-.75.575-1.325T4.4 9.45q.175 0 .313.012q.137.013.287.063l.775.2q.35.1.65.262q.3.163.575.413V4.5q0-1.05.725-1.775Q8.45 2 9.5 2q.15 0 .288.012q.137.013.262.038q.15-.95.863-1.5Q11.625 0 12.5 0q.8 0 1.425.438q.625.437.9 1.162q.175-.05.338-.075q.162-.025.337-.025q1.05 0 1.775.725Q18 2.95 18 4v.55q.125-.025.25-.038q.125-.012.25-.012q1.05 0 1.775.725Q21 5.95 21 7v9q0 3.35-2.325 5.675Q16.35 24 13 24Zm0-2q2.5 0 4.25-1.75T19 16V7q0-.2-.15-.35q-.15-.15-.35-.15q-.2 0-.35.15Q18 6.8 18 7v5h-2V4q0-.2-.15-.35q-.15-.15-.35-.15q-.2 0-.35.15Q15 3.8 15 4v8h-2V2.5q0-.2-.15-.35Q12.7 2 12.5 2q-.2 0-.35.15q-.15.15-.15.35V12h-2V4.5q0-.2-.15-.35Q9.7 4 9.5 4q-.2 0-.35.15Q9 4.3 9 4.5V15H7l-.975-2.5q-.175-.425-.487-.625q-.313-.2-1.038-.425L7.1 18q.725 1.8 2.338 2.9Q11.05 22 13 22Z"></path></svg>